<svg viewBox="0 0 369.969696969697 61.8001522925147" preserveAspectRatio="xMidYMid meet" class="css-8aabad" id="gfbceaea"><defs id="SvgjsDefs1001"></defs><g id="SvgjsG1007" featurekey="symbolFeature-0" transform="matrix(0.7914970601537766,0,0,0.7914970601537766,-13.059701492537314,-8.67477686143148)" fill="#111"><g xmlns="http://www.w3.org/2000/svg"><g><g><g><path d="M62.1245117,58.6015625c-1.0219727,0-2.0073242-0.2446289-2.9287109-0.7275391      c-3.300293-1.6821289-5.5239258-6.1567383-5.5239258-11.1289063c0-6.5429688,3.7919922-11.8662109,8.4526367-11.8662109      c4.6611328,0,8.453125,5.3232422,8.453125,11.8662109c0,4.9790039-2.2290039,9.4541016-5.546875,11.1352539      C64.1206055,58.3569336,63.1386719,58.6015625,62.1245117,58.6015625z M62.1245117,36.8789063      c-3.5581055,0-6.4526367,4.4257813-6.4526367,9.8662109c0,4.2392578,1.7851563,7.9975586,4.4418945,9.3520508      c1.277832,0.6699219,2.7294922,0.6713867,4.0009766,0.0053711c2.6743164-1.3554688,4.4628906-5.1132813,4.4628906-9.3574219      C68.5776367,41.3046875,65.6826172,36.8789063,62.1245117,36.8789063z"></path></g><g><path d="M62.1201172,89.0400391c-1.9511719,0-3.4799805-1.2475586-3.4799805-2.8398438V57.3198242      c0-0.1240234,0.0107422-0.2358398,0.0249023-0.3588867l0.1577148-1.3803711l1.2607422,0.5737305      c1.2666016,0.5917969,2.8066406,0.5917969,4.0732422,0l1.2666016-0.5922852l0.1508789,1.3901367      c0.0161133,0.1445313,0.0258789,0.2504883,0.0258789,0.3676758v28.8803711      C65.6000977,87.7924805,64.0712891,89.0400391,62.1201172,89.0400391z M60.6401367,58.4418945v27.7583008      c0,0.3964844,0.6328125,0.8398438,1.4799805,0.8398438s1.4799805-0.4433594,1.4799805-0.8398438V58.4418945      C62.6391602,58.6518555,61.6010742,58.6518555,60.6401367,58.4418945z"></path></g><g><path d="M61.0654297,55.5927734c-2.4316406-1.159668-4.1274414-4.3139648-4.3208008-8.0361328      c-0.1181641-2.2744141,0.3500977-4.4575195,1.3193359-6.1464844c1.0498047-1.8295898,2.5615234-2.8857422,4.2578125-2.9736328      l0.1035156,1.9970703c-0.9941406,0.0517578-1.9267578,0.7519531-2.6264648,1.9716797      c-0.7802734,1.3598633-1.1557617,3.1523438-1.0571289,5.0478516c0.1513672,2.9077148,1.4604492,5.512207,3.184082,6.3339844      L61.0654297,55.5927734z"></path></g></g><g><g><path d="M35.8115234,57.4150391c-3.7055664-0.7783203-6.3955078-4.1010742-6.3955078-7.9008789V37.8237305h2v11.6904297      c0,2.859375,2.0214844,5.3588867,4.8066406,5.9438477L35.8115234,57.4150391z"></path></g><g><path d="M41.2958984,57.4150391l-0.4111328-1.9570313c2.784668-0.5849609,4.8061523-3.0849609,4.8061523-5.9438477V37.8237305h2      v11.6904297C47.690918,53.3139648,45.0014648,56.6367188,41.2958984,57.4150391z"></path></g><g><rect x="37.5537109" y="38.3076172" width="2" height="17.0986328"></rect></g><g><path d="M38.5498047,89.0400391c-2.034668,0-3.6899414-1.659668-3.6899414-3.7001953v-28      c0-0.4516602,0.0771484-0.8769531,0.2290039-1.2646484c0.4980469-1.4414063,1.8945313-2.4350586,3.4609375-2.4350586      c0.96875,0,1.9228516,0.3984375,2.6171875,1.0927734c0.40625,0.40625,0.699707,0.8740234,0.871582,1.3911133      C42.1728516,56.4604492,42.25,56.8867188,42.25,57.3398438v28C42.25,87.3803711,40.590332,89.0400391,38.5498047,89.0400391z       M38.5498047,55.6401367c-0.7148438,0-1.3515625,0.4526367-1.5849609,1.1269531      c-0.0751953,0.1943359-0.1049805,0.3691406-0.1049805,0.5727539v28c0,0.9375,0.7583008,1.7001953,1.6899414,1.7001953      c0.9375,0,1.7001953-0.7626953,1.7001953-1.7001953v-28c0-0.2041016-0.0297852-0.378418-0.0908203-0.5336914      c-0.0922852-0.2729492-0.2192383-0.472168-0.40625-0.6591797C39.4306641,55.824707,38.9921875,55.6401367,38.5498047,55.6401367      z"></path></g></g></g><g><path d="M50,77.9599609c-3.0351563,0-6.0683594-0.4125977-9.0161133-1.2260742L40.25,76.53125V57.3398438    c0-0.2041016-0.0297852-0.378418-0.0908203-0.5336914c-0.0922852-0.2729492-0.2192383-0.472168-0.40625-0.6591797    c-0.3222656-0.3222656-0.7607422-0.5068359-1.203125-0.5068359c-0.7148438,0-1.3515625,0.4526367-1.5849609,1.1269531    c-0.0751953,0.1943359-0.1049805,0.3691406-0.1049805,0.5727539V75.324707l-1.4355469-0.6943359    C23.9282227,69.0673828,16.5,57.2246094,16.5,44.4599609c0-18.472168,15.027832-33.5,33.5-33.5s33.5,15.027832,33.5,33.5    c0,12.7304688-7.0698242,24.2001953-18.4501953,29.9331055l-1.449707,0.7304688V58.4418945    c-0.9609375,0.2099609-1.9990234,0.2099609-2.9599609,0v17.8051758l-0.7045898,0.2182617    C56.7290039,77.4570313,53.3862305,77.9599609,50,77.9599609z M42.25,74.9995117    c5.4111328,1.3579102,11.1113281,1.262207,16.3901367-0.2363281V57.3198242c0-0.1245117,0.0107422-0.2358398,0.0249023-0.3588867    l0.1582031-1.3803711l1.2602539,0.5737305c1.2666016,0.5917969,2.8066406,0.5917969,4.0732422,0L65.4233398,55.5625    l0.1508789,1.3896484c0.0161133,0.1445313,0.0258789,0.2504883,0.0258789,0.3676758v14.5097656    C75.4492188,66.2216797,81.5,55.8803711,81.5,44.4599609c0-17.3691406-14.1308594-31.5-31.5-31.5s-31.5,14.1308594-31.5,31.5    c0,11.4628906,6.3706055,22.1352539,16.3598633,27.628418V57.3398438c0-0.4516602,0.0771484-0.8769531,0.2290039-1.2646484    c0.4980469-1.4414063,1.8945313-2.4350586,3.4609375-2.4350586c0.96875,0,1.9228516,0.3984375,2.6171875,1.0927734    c0.40625,0.40625,0.699707,0.8740234,0.871582,1.3911133C42.1728516,56.4604492,42.25,56.8867188,42.25,57.3398438V74.9995117z"></path></g></g></g><g id="SvgjsG1008" featurekey="nameFeature-0" transform="matrix(1.5616504421558397,0,0,1.5616504421558397,73.00000037232648,-8.615412102594462)" fill="#111"><path d="M9.4 21.24 l0 3.76 l-5.64 0 l0 14.92 l-3.76 0 l0 -28.48 l9.32 0 l0 3.8 l-5.56 0 l0 6 l5.64 0 z M17.188000000000002 36.24 l5.52 0 l0 3.76 l-9.28 0 l0 -28.72 l3.76 0 l0 24.96 z M36.736000000000004 40 l-1.44 -9.88 l-4.04 0 l-1.32 9.88 l-3.84 0 l4.32 -28.6 l5.16 0 l5 28.6 l-3.84 0 z M31.776 26.32 l2.96 0 l-1.52 -10.4 z M48.764 40 l-3.96 0 l-4 -28.56 l3.84 0 l2.08 14.72 l1.92 -14.72 l3.84 0 z M61.912 40.04 c-3 0 -5.4 -2.44 -5.4 -5.4 l0 -17.96 c0 -2.96 2.4 -5.36 5.4 -5.36 c2.96 0 5.36 2.4 5.36 5.36 l0 17.96 c0 2.96 -2.4 5.4 -5.36 5.4 z M61.912 15.120000000000001 c-0.88 0 -1.56 0.72 -1.56 1.56 l0 17.96 c0 0.88 0.68 1.56 1.56 1.56 c0.84 0 1.56 -0.68 1.56 -1.56 l0 -17.96 c0 -0.84 -0.72 -1.56 -1.56 -1.56 z M77.17999999999999 40.08 c-3.24 0 -5.88 -2.64 -5.88 -5.88 l0 -22.72 l3.8 0 l0 22.72 c0 1.16 0.92 2.12 2.08 2.12 s2.08 -0.96 2.08 -2.12 l0 -22.72 l3.8 0 l0 22.72 c0 3.24 -2.64 5.88 -5.88 5.88 z M98.048 40.08 l-4.08 0 l-2.2 -6.04 l-0.88 0 l0 6.04 l-3.8 0 l0 -28.64 l5.96 0 c2.64 0 4.76 2.12 4.76 4.76 l0 13.08 c0 1.72 -0.88 3.2 -2.24 4.04 z M90.88799999999999 15.239999999999998 l0 15 l2.16 0 c0.52 0 0.96 -0.44 0.96 -0.96 l0 -13.08 c0 -0.52 -0.44 -0.96 -0.96 -0.96 l-2.16 0 z M121.504 21.24 l0 3.76 l-5.64 0 l0 14.92 l-3.76 0 l0 -28.48 l9.32 0 l0 3.8 l-5.56 0 l0 6 l5.64 0 z M129.332 11.36 l0 28.48 l-3.8 0 l0 -28.48 l3.8 0 z M142.64 33.44 l0.16 -22.16 l3.84 0 l-0.24 28.88 l-5.96 0 l-3.24 -22.36 l0 22.36 l-3.84 0 l0 -28.88 l6.2 0 z M155.66799999999998 40.04 l-5 0 l0 -28.52 l5 0 c3.4 0 6.12 2.76 6.12 6.16 l0 16.2 c0 1.64 -0.64 3.2 -1.8 4.36 s-2.68 1.8 -4.32 1.8 z M154.468 15.36 l0 20.84 l1.2 0 c0.6 0 1.2 -0.24 1.64 -0.68 s0.68 -1 0.68 -1.64 l0 -16.2 c0 -1.28 -1.04 -2.32 -2.32 -2.32 l-1.2 0 z M175.13599999999997 24.92 l-5.52 0 l0 11.28 l5.56 0 l0 3.8 l-9.36 0 l0 -28.56 l9.36 0 l0 3.8 l-5.56 0 l0 5.88 l5.52 0 l0 3.8 z M190.164 40.08 l-4.08 0 l-2.2 -6.04 l-0.88 0 l0 6.04 l-3.8 0 l0 -28.64 l5.96 0 c2.64 0 4.76 2.12 4.76 4.76 l0 13.08 c0 1.72 -0.88 3.2 -2.24 4.04 z M183.004 15.239999999999998 l0 15 l2.16 0 c0.52 0 0.96 -0.44 0.96 -0.96 l0 -13.08 c0 -0.52 -0.44 -0.96 -0.96 -0.96 l-2.16 0 z"></path></g></svg>